# xmcd CD database file
#
# Track frame offsets:
#	150
#	34170
#	52185
#	68387
#
# Disc length: 1009 seconds
#
# Revision: 0
# Processed by: cddbd v1.5.1PL0 Copyright (c) Steve Scherf et al.
# Submitted via: CDex 1.51
#
DISCID=2f03ef04
DTITLE=木屋響子 - WATER BLUE
DYEAR=1900
DGENRE=JPop
TTITLE0=WATER BLUE
TTITLE1=TRUE
TTITLE2=WALKING IN THE BLUE SKY
TTITLE3=WATERIC SONG
EXTD=
EXTT0=
EXTT1=
EXTT2=
EXTT3=
PLAYORDER=
